<svg id="visual" viewBox="0 0 960 540" width="960" height="540" xmlns="http://www.w3.org/2000/svg" xmlns:xlink="http://www.w3.org/1999/xlink" version="1.1"><rect x="0" y="0" width="960" height="540" fill="#000000"></rect><defs><linearGradient id="grad1_0" x1="43.8%" y1="0%" x2="100%" y2="100%"><stop offset="14.444444444444446%" stop-color="#000000" stop-opacity="1"></stop><stop offset="85.55555555555554%" stop-color="#000000" stop-opacity="1"></stop></linearGradient></defs><defs><linearGradient id="grad2_0" x1="0%" y1="0%" x2="56.3%" y2="100%"><stop offset="14.444444444444446%" stop-color="#000000" stop-opacity="1"></stop><stop offset="85.55555555555554%" stop-color="#000000" stop-opacity="1"></stop></linearGradient></defs><g transform="translate(960, 0)"><path d="M0 324C-28.8 288.9 -57.6 253.7 -101 243.9C-144.5 234.1 -202.5 249.5 -229.1 229.1C-255.7 208.7 -250.9 152.5 -261.5 108.3C-272 64.1 -298 32.1 -324 0L0 0Z" fill="#4c4c4c"></path></g><g transform="translate(0, 540)"><path d="M0 -324C30.8 -295 61.5 -266 106 -255.9C150.5 -245.8 208.6 -254.5 229.1 -229.1C249.6 -203.7 232.5 -144.1 242.1 -100.3C251.6 -56.4 287.8 -28.2 324 0L0 0Z" fill="#4c4c4c"></path></g></svg>