<svg id="visual" viewBox="0 0 900 600" width="900" height="600" xmlns="http://www.w3.org/2000/svg" xmlns:xlink="http://www.w3.org/1999/xlink" version="1.1"><path d="M0 55L13.7 53C27.3 51 54.7 47 82 48C109.3 49 136.7 55 163.8 54C191 53 218 45 245.2 47C272.3 49 299.7 61 327 69C354.3 77 381.7 81 409 85C436.3 89 463.7 93 491 91C518.3 89 545.7 81 573 80C600.3 79 627.7 85 654.8 79C682 73 709 55 736.2 57C763.3 59 790.7 81 818 90C845.3 99 872.7 95 886.3 93L900 91L900 0L886.3 0C872.7 0 845.3 0 818 0C790.7 0 763.3 0 736.2 0C709 0 682 0 654.8 0C627.7 0 600.3 0 573 0C545.7 0 518.3 0 491 0C463.7 0 436.3 0 409 0C381.7 0 354.3 0 327 0C299.7 0 272.3 0 245.2 0C218 0 191 0 163.8 0C136.7 0 109.3 0 82 0C54.7 0 27.3 0 13.7 0L0 0Z" fill="#6198ff"></path><path d="M0 145L13.7 145C27.3 145 54.7 145 82 141C109.3 137 136.7 129 163.8 129C191 129 218 137 245.2 148C272.3 159 299.7 173 327 172C354.3 171 381.7 155 409 155C436.3 155 463.7 171 491 176C518.3 181 545.7 175 573 173C600.3 171 627.7 173 654.8 164C682 155 709 135 736.2 138C763.3 141 790.7 167 818 175C845.3 183 872.7 173 886.3 168L900 163L900 89L886.3 91C872.7 93 845.3 97 818 88C790.7 79 763.3 57 736.2 55C709 53 682 71 654.8 77C627.7 83 600.3 77 573 78C545.7 79 518.3 87 491 89C463.7 91 436.3 87 409 83C381.7 79 354.3 75 327 67C299.7 59 272.3 47 245.2 45C218 43 191 51 163.8 52C136.7 53 109.3 47 82 46C54.7 45 27.3 49 13.7 51L0 53Z" fill="#3c80ff"></path><path d="M0 373L13.7 352C27.3 331 54.7 289 82 265C109.3 241 136.7 235 163.8 239C191 243 218 257 245.2 270C272.3 283 299.7 295 327 289C354.3 283 381.7 259 409 267C436.3 275 463.7 315 491 346C518.3 377 545.7 399 573 388C600.3 377 627.7 333 654.8 310C682 287 709 285 736.2 291C763.3 297 790.7 311 818 314C845.3 317 872.7 309 886.3 305L900 301L900 161L886.3 166C872.7 171 845.3 181 818 173C790.7 165 763.3 139 736.2 136C709 133 682 153 654.8 162C627.7 171 600.3 169 573 171C545.7 173 518.3 179 491 174C463.7 169 436.3 153 409 153C381.7 153 354.3 169 327 170C299.7 171 272.3 157 245.2 146C218 135 191 127 163.8 127C136.7 127 109.3 135 82 139C54.7 143 27.3 143 13.7 143L0 143Z" fill="#0066ff"></path><path d="M0 505L13.7 486C27.3 467 54.7 429 82 410C109.3 391 136.7 391 163.8 386C191 381 218 371 245.2 366C272.3 361 299.7 361 327 365C354.3 369 381.7 377 409 394C436.3 411 463.7 437 491 455C518.3 473 545.7 483 573 476C600.3 469 627.7 445 654.8 438C682 431 709 441 736.2 437C763.3 433 790.7 415 818 407C845.3 399 872.7 401 886.3 402L900 403L900 299L886.3 303C872.7 307 845.3 315 818 312C790.7 309 763.3 295 736.2 289C709 283 682 285 654.8 308C627.7 331 600.3 375 573 386C545.7 397 518.3 375 491 344C463.7 313 436.3 273 409 265C381.7 257 354.3 281 327 287C299.7 293 272.3 281 245.2 268C218 255 191 241 163.8 237C136.7 233 109.3 239 82 263C54.7 287 27.3 329 13.7 350L0 371Z" fill="#0059dd"></path><path d="M0 601L13.7 601C27.3 601 54.7 601 82 601C109.3 601 136.7 601 163.8 601C191 601 218 601 245.2 601C272.3 601 299.7 601 327 601C354.3 601 381.7 601 409 601C436.3 601 463.7 601 491 601C518.3 601 545.7 601 573 601C600.3 601 627.7 601 654.8 601C682 601 709 601 736.2 601C763.3 601 790.7 601 818 601C845.3 601 872.7 601 886.3 601L900 601L900 401L886.3 400C872.7 399 845.3 397 818 405C790.7 413 763.3 431 736.2 435C709 439 682 429 654.8 436C627.7 443 600.3 467 573 474C545.7 481 518.3 471 491 453C463.7 435 436.3 409 409 392C381.7 375 354.3 367 327 363C299.7 359 272.3 359 245.2 364C218 369 191 379 163.8 384C136.7 389 109.3 389 82 408C54.7 427 27.3 465 13.7 484L0 503Z" fill="#004cbb"></path></svg>